<mxfile host="app.diagrams.net" modified="2024-02-19T13:58:48.329Z" agent="Mozilla/5.0 (Macintosh; Intel Mac OS X 10_15_7) AppleWebKit/537.36 (KHTML, like Gecko) Chrome/121.0.0.0 Safari/537.36" version="23.1.5" etag="xoivoty7LrWSF1z2xaZc" type="github">
  <diagram name="Page-1" id="p5RvqFCWG5NX3lr98CSM">
    <mxGraphModel>
      <root>
        <mxCell id="0" />
        <mxCell id="1" parent="0" />
      </root>
    </mxGraphModel>
  </diagram>
</mxfile>
